<?xml version="1.0" encoding="utf-8"?>
<!-- Generator: Adobe Illustrator 16.0.0, SVG Export Plug-In . SVG Version: 6.00 Build 0)  -->
<!DOCTYPE svg PUBLIC "-//W3C//DTD SVG 1.1//EN" "http://www.w3.org/Graphics/SVG/1.1/DTD/svg11.dtd">
<svg version="1.1" id="Capa_1" xmlns="http://www.w3.org/2000/svg" xmlns:xlink="http://www.w3.org/1999/xlink" x="0px" y="0px"
	 width="595.279px" height="595.279px" viewBox="0 0 595.279 595.279" enable-background="new 0 0 595.279 595.279"
	 xml:space="preserve">
<g>
	<polygon fill="#FFFFFF" points="185.536,89.684 297.536,197.684 409.202,89.684 409.202,265.015 518.743,328.223 297.494,458.098 
		76.536,328.848 185.536,265.015 	"/>
	<polygon fill="#A82727" points="184.869,283.359 184.869,373.689 109.869,328.519 	"/>
	<polygon fill="#A82727" points="284.199,207.359 202.539,254.019 202.539,128.689 	"/>
	<polygon fill="#A82727" points="289.199,324.359 202.539,373.689 202.539,273.888 289.199,223.359 	"/>
	<polygon fill="#A82727" points="393.198,128.689 393.198,254.019 311.538,207.359 	"/>
	<polygon fill="#A82727" points="305.868,223.359 393.198,273.888 393.198,373.689 305.868,324.359 	"/>
	<polygon fill="#A82727" points="297.64,337.689 384.538,388.689 297.64,439.688 210.539,388.689 	"/>
	<polygon fill="#A82727" points="485.538,328.519 409.538,373.689 409.538,283.359 	"/>
</g>
</svg>
